<svg xmlns="http://www.w3.org/2000/svg" viewBox="0 0 72.7 243.6"><g id="Layer_2" data-name="Layer 2"><g id="Louisiana-Parishes-Inline-parish"><path id="jefferson-parish" d="M0,0,6.9,1.3,34.4,7.8,32.8,45.4,45.7,64,56,75.1,47.7,88.6l-4.2,15.3,2,7.5,6.2,8.8,3.8,4.6L63,138.6l1,4.4,1.9,34.5-10,3-12-5.7L28.6,150.7l1.3-4.3v-2.3L28,127.9l-.5-1.8-2-1.3-6.6-1.7h-5l3.1-8.8,1.2-3.5,3.9-19-12-7.6L4.2,74.6,3.1,70.8,1.4,59.4l-.3-8L0,0M48.7,232.6l.2.2,4.7-2.5,5-3.8,11.1-9.2,2.7,1.5.3.7v.6l-1.1,1.7L60.1,232.2l-12.7,9.5-1.9,1.9h-.1l3.3-11" fill="#9ab185"/></g></g></svg>