<svg xmlns="http://www.w3.org/2000/svg" viewBox="0 0 197.7 192.3"><g id="Layer_2" data-name="Layer 2"><g id="Louisiana-Parishes-Inline-parish"><path id="lafourche-parish" d="M92,1.2l10.6,7.4,16.8,18.9,9.9,13.6v1.4l1.8,2.5,2.4.7,22.2-.5h5.1l6.5,1.7,2.1,1.4.5,1.7,1.8,16.2v2.4l-1.3,4.2,15.4,24.1,11.9,5.7-.5,26-12.3,14.3,5.7,11.9-3.3,11-2.2,2-.6.6-13.1,10.3-.7.6-.6.3-9.2,5.5-23.8,7.2-1.1-1.1V191l-.4-2.2,5-1.8,3.8-1.7,2.5-.5,2.2-.7,4.4-1.6,1.5-1,3.7-3.1-.2-4.3-8-17.1-3.2-4.7-6.1-8.7-3.5-2.7-6.9.8-4,5.1-4,13,5.8-25.1-.9-10.7-1.1-3.4-2.8-3.2L87.3,77.7,39.4,29.2l-2.6-.3-1.4.5L0,44.2,23.1,0,68.9,2.5,92,1.2" fill="#9ab185"/></g></g></svg>