<svg xmlns="http://www.w3.org/2000/svg" viewBox="0 0 220.6 191.9"><g id="Layer_2" data-name="Layer 2"><g id="Louisiana-Parishes-Inline-parish"><path id="plaquemines-parish" d="M12.4,0,32.1,5.5l2.6,6,4.2,7.7,2.4,3.1,1.3.2,2.1-.7L74,30.5l2.9,3.2L90.6,46.8l21.7,5.9,5.4,4.6,1.2,1.8-3.5.2L108,55.8,91.4,52.5,87.8,54l-6.5,5.2-1.8,5.5L77,83.6v1.1l1.5,1.7,5.7,4,36.7,20.7,5.9-.2,15.6-.2,41.1,13.1,10.3,13.6L199,145l7.9,4.9,7.6-3.2,1.4.7,1.4,1.4,3.3,7.1v.2l-.8,3.1v.2l-3.8,8.2-6.7,14-18.5,10.3-12.7-8.3H150.5L129,157.3l-.5-.6-2.7-2.7-.3-.3-2.1-1.6h0l-.9-.3-5.9-2.4-4.3-1.7-27.5-11-4.4-1.3-.8-.3-4.2-1-1.7-.4H72.5l-4.2-.5-5.9-.6-11-10.5,2.7-4.4.8-1.6V114l-.2-1.3-4-15.5v-.7l-1.3-.6-1.8-1.1-2.6.5-2.6,1.1-5.2,3L34,103.1l-2.6,3.5-4.6.4-1.9-1.4-2.6-2.8L20.4,68.3l-.9-4.4L12,50.1,8.2,45.5,2,36.7,0,29.1,4.2,13.8,12.5.4" fill="#9ab185"/></g></g></svg>