<svg xmlns="http://www.w3.org/2000/svg" viewBox="0 0 180.7 180.6"><g id="Layer_2" data-name="Layer 2"><g id="Louisiana-Parishes-Inline-parish"><path id="st-Martin-parish" d="M45.7.1h11L68.9,12.4,71.5,19l.7,4.5.2,12.1-.6,2.7.4,1.4,1.1,3.2L80,54.8,82.5,57,85,58.3l4.1.4,6.3-.4,3.7.8,3.4,1.6,19.8,30.4,2,5.3v3l-23.8.6L66.2,89l-1.8-.7-7-1.7H51.7l-2.7.6-3.8,2.2L17.1,98.1H8.4L0,30.4l11.5-6.6,12-4.8,9.8,3.8L34.8,24l26.6-.5-8-12.4L45.7,0m58.6,123.3,43.1-4.3,1.6,4.3,10.2,21,2.9,2.9,8.7,2h2l4.1,2.3,2.4,2.7,1.4,3v8.7l-.9,14.7-23.2-11.3-32.5-16.2-19.7-29.8" fill="#9ab185"/></g></g></svg>