<svg xmlns="http://www.w3.org/2000/svg" viewBox="0 0 154 141"><g id="Layer_2" data-name="Layer 2"><g id="Louisiana-Parishes-Inline-parish"><path id="vermilion-parish" d="M154,25.3l-.3,52.8-13,5.3-4.2,2.3-10,6.4-7.4,6.5-.9,4.5,3.5,8.3,4.2,8.9,3.7.7,19.1,1.2-8.5,7.2-1.1-.6-11.9-.4-10.4,1.3h-.1l-10.8,4.4-7.8,5.5-5.3,1.2H91.1l-3.6.2h-.9l-50-8.1L25.1,131h-.3l.4-26.7-.7-78.6L0,26.1,22.5,13.3l2.1.7,37.8,8.9,3.5-1.1,3.9-1.7L74,17.3,90.1,0l14.8,1.2,16.3,5.9,12.5,9.2L154,25.2" fill="#9ab185"/></g></g></svg>