<svg id="Louisiana_Parishes_Inline" data-name="Louisiana Parishes" xmlns="http://www.w3.org/2000/svg" viewBox="0 0 1008 908.6">
  <g>
    <path id="st_Tammany" data-name="st Tammany" d="M744.8,522.7l81.9,7.9,31.7,46.3.3.4,1.3,1.3,11.5,25.3.2,4.3-2,4.6-.5,1.9v1.2l5.9,12.1,1.8,3.8,4.2,5.2,1.4,1.7.5.3.7.5.5.3h.4l9.1-.3-19.3,7.3-1.2-.9-11-3.9-38.6-4.2-4.6,1.7-19,10.6-21.8-9-27.5-6.6-6-111.8" fill="#9ab185"/>
    <path id="washington" d="M825.3,453.4l21.1-.8.2,7.1-2.8,12.1-2.1,4.3-1.2.2h-1.6l-.5.5-2.9,10.7-3.4,14.6-2.7,12-2.7,16.4-81.9-7.9v-4.1l-13.3-34.4-6.1-5.3-.8-21.8,17.3-.6,83.3-3.1" fill="#9ab185"/>
    <path id="red_River" data-name="red River" d="M110.8,181.1l8.3.3,46.5,20.1,2.3,2.3,4.5,7.3,3.4,11.7v1l-1.4,13.3-18.7,20.8-8.2,3.5-7.8-.3-5.6-2.1-.9-7.7-17.1-13.4-2-2.6-11.7-19.5L95.6,191,83,180.9h27.8" fill="#9ab185"/>
    <path id="bienville" d="M224.9,100.9l20.2,30.2-7,70.7H165.6l-46.5-20.1,10.8-40.1h26.3L173.6,131v-5.7l-6.1-24.2,57.5-.2" fill="#9ab185"/>
    <path id="lincoln" d="M254.6,60.5h15.9l8.3,1.2,6.2,1.6,29.5,17.5.3,20.1v20l-39.9.3.2,9.9h-30l-20.2-30.2,29.7-40.4" fill="#9ab185"/>
    <path id="jackson" d="M245.1,131.1h30l-.2-9.9,39.9-.3.2,18.5,1.1,2.9,19.1,18.8V171l.2,30.3-97.4.5,6.9-70.6" fill="#9ab185"/>
    <path id="winn" d="M238.1,201.8l97.4-.5.5,50.3-9.5,30.2-49.9.3v10.8l-1,9.3-67.9.5,13.1-37.1,4-16,.4-2.8-.7-17.1-3.7-15L214,201.6h24.1" fill="#9ab185"/>
    <path id="caldwell" d="M335.3,171l53.8-.5,27.4,28.6,4.1,5.8,1,2,.3,5.9-10.4,6,4.1,16.3,2.5,5.4L395.7,251l-59.7.6-.5-50.3-.2-30.3" fill="#9ab185"/>
    <path id="ouachita" d="M381.9,67.9l29.9,49.6-22.7,53-53.8.5v-9.9l-19.2-18.8-1.1-2.9-.2-18.5v-20l29.6-.2,5.4-1.4,2-1.4L377.7,74l4.2-6.2" fill="#9ab185"/>
    <path id="richland" d="M501.8,98.5l-2.2,10.2-3.1,30.4-30.1.8-7.3,4-17.4,19.5-9.3,19.9-15.9,15.8-27.4-28.6,22.7-53,7.2-6.2,13.8-9.2,13.1-4L458,92.5l1.9-2,2.8-4.7,1.9-5.4-.2-.9,8,2.8,7.9,16.4,21.5-.2" fill="#9ab185"/>
    <path id="franklin" d="M494.3,185.8,479.5,260l-4.4-13.2-9.6-4.9-.4,1.9-3.7,5.8-7.3,7.7-5.1,3.5-9.3,2.3-2.8-3.8-4.4-7.3-6.8-7.3-4.8-3.3-2.8-.9-2.5-5.4-4.1-16.3,10.4-6-.3-6-1-1.9-4.1-5.9,15.9-15.7,9.3-19.9,17.4-19.5,7.3-4.1,30.1-.7-2.2,46.7" fill="#9ab185"/>
    <path id="tensas" d="M494.3,185.8l33.3-.4,1-1.8,3.5-2.3,21.6-6.3,8.8-1.2h1.1l2.5,2.1v5.2l18.9,23.4-41.6,57.1-23.1,28.7-2,3.5-32.3-4.1L479.5,260l14.8-74.2" fill="#9ab185"/>
    <path id="madison" d="M570.4,101.4,565.6,116l.2,3.7v.3l.5.8.8,1.3.2.4L588,145.9l.4,33.2L566,181.3v-5.2l-2.4-2.2h-1.1l-8.8,1.2-21.6,6.3-3.5,2.3-1,1.8-33.3.4,2.2-46.7,3.2-30.5,70.7-7.2" fill="#9ab185"/>
    <path id="east_Carroll" data-name="east Carroll" d="M553.5,0l-6.6,10-2.2,7.3.3,1.9,13.3,70.2,1.1,2.8.2.4.6.7.2.4.4.3,1.8,1.7.4.4,6.1,2.1,1.3,3.2-70.8,7.2,2.2-10.2,5.7-5,2-5.6,6.4-22,3.7-25.3,1.1-6.8,7.6-20.3L534.6.2,553.5,0" fill="#9ab185"/>
    <path id="west_Carroll" data-name="west Carroll" d="M534.6.2l-6.3,13.2-7.6,20.4-1.1,6.7-3.7,25.4-6.4,22-2,5.5-5.7,5.1-21.5.3-7.9-16.5-8-2.8L472,59.9,500.5,5.5,501.8.6,534.6.3" fill="#9ab185"/>
    <path id="morehouse" d="M497.1.7h4.7l-1.3,4.9L472,59.8l-7.6,19.6.2.9-1.9,5.4-2.8,4.8L458,92.4,445.9,98l-13.1,4L419,111.2l-7.2,6.3-30-49.7.9-.7,1.6-3.1-.2-12.1-6.4-20,2.6-29.8L497.1.7" fill="#9ab185"/>
    <path id="union" d="M380.3,2.1,377.7,32l6.4,19.9.2,12.2-1.6,3.1-.8.6L377.7,74,351.8,98l-2,1.3-5.4,1.4-29.6.2-.3-20.1L285,63.3l-6.2-1.6-8.3-1.2H254.6l-.2-58.7,125.9.3" fill="#9ab185"/>
    <path id="claiborne" d="M203.8,1.3l50.6.5.2,58.7-29.7,40.3-57.5.2.8-11.3-2.3-19.1h-9.8l-.2-69.6h47.9" fill="#9ab185"/>
    <path id="webster" d="M107.5,1.1h48.4l.2,69.6h9.8l2.3,19.1-.8,11.3,6.1,24.2V131l-17.4,10.3H129.9l-13.2-.2-1-20.1.4-60.7-1.2-25-5.3-5.9-6.5-10.2-3.4-6.5V9.2L101.6.9l5.9.2" fill="#9ab185"/>
    <path id="bossier" d="M101.6,1,99.8,9.3v3.4l3.4,6.6,6.5,10.2,5.3,5.8,1.2,25.1-.4,60.6,1,20.2,13.2.2-10.8,40.1-8.3-.3L94.3,158.5,73.2,146.4l-22-74.9L49.5,60.6,42.9,3.2l.3-.8L45.3.7h1.9l54.4.4" fill="#9ab185"/>
    <path id="caddo" d="M45.3.6,43.2,2.2l-.3,1,6.6,57.3,1.7,10.9,21.9,74.9,21.2,12.1,16.5,22.7H83v-7.5l-1.8-2.9-4.4-4.9L73,162.6l-15.6-5.8L54,156l-3.7.7-2.9,1.7-1,.9-10,11.1-.6,3.4.3,1.3-.7,2-7,6.1-10.7,7.1L0,190.1.8,75.6l.5-43.4L1.5.3,45.3.6" fill="#9ab185"/>
    <path id="de_Soto" data-name="de Soto" d="M83,181l12.6,10,6.8,24.9,11.7,19.5,2,2.6,17.1,13.4-16.8,20-85.1-.2L4.8,239.8,0,190l17.7.2,10.7-7.1,7-6.1.7-2-.3-1.3.6-3.4,10-11.1,1-.9,2.9-1.7,3.7-.7,3.3.8L73,162.5l3.9,3.1,4.4,4.9,1.8,2.9v7.5" fill="#9ab185"/>
    <path id="sabine" d="M31.3,271.2l85.1.2-.2,30h20.1l.3,40.5h19.7v40.1H126.1l-28.6,21-2.4,7.1-1.4,12.5.5.4L85,425.2l-1.7-11.9-1.1-7.6L77.1,380,59.8,353.4,39.4,330.6l-8.1-59.4" fill="#9ab185"/>
    <path id="natchitoches" d="M165.6,201.6H214l6.7,13.1,3.7,15,.7,17.1-.4,2.8-4,16-13.1,37.1,49.8,43.8-51.2,39.6-49.8-4v-40H136.6l-.3-40.5H116.2l.2-30,16.8-20,.9,7.6,5.6,2.2,7.8.2,8.2-3.4,18.7-20.9,1.4-13.3v-1l-3.4-11.7-4.5-7.2-2.2-2.4" fill="#9ab185"/>
    <path id="grant" d="M207.6,302.7l67.9-.5,1-9.3V282.1l49.9-.3L328,311l5.8,17.9,8.9,13.1,8.6,10.1,8.5,2.7-21,4.7-64.2,16.2-5.2.6-5.9-2.3-1.3-1-2.3-11.9-2.5-14.6-49.8-43.8" fill="#9ab185"/>
    <path id="la_Salle" data-name="la Salle" d="M336,251.6l59.7-.6L397,389.4l-15.4-2.1-21.8-32.5-8.5-2.7L342.7,342l-8.9-13.1L328,311l-1.5-29.2,9.5-30.2" fill="#9ab185"/>
    <path id="catahoula" d="M395.7,251l22.4-10.5,2.8,1,4.8,3.3,6.8,7.2,4.4,7.3,2.8,3.8,9.4-2.3,5-3.5,7.3-7.6,3.7-5.9.4-1.9,9.6,4.9,4.4,13.2,6.4,29.9-27,2.6-1.6,1.4-21.7,24.6-1.4,2.2L426,350.2l-1.2,6.5v34.9l.6,2.1,5.9,8.9-10.7-5.7-4-1.1-3.5.5-2.3,2.3-1.5,3.4,1.8,4.7,2.3,2.9.6,1.6-3.9,2.1-9.3-.8-.8-1.1L396.8,397l.2-7.7L395.7,251" fill="#9ab185"/>
    <path id="concordia" d="M485.9,289.9l32.3,4L515,299l-.2.2-22.2,41.5-.5.9-.7,1.5v.2l-9,59.6-5.5,24.7L471,463.3l-4.9,6.7.7-5.5-13.1-11.2,1.5-3.4,1.1-3.3,6-26.5-2.2-2.7-3.5-2-1,.3-6.6-1.1-9.2-2.8-4.3-2.9-4.3-6.2-6-8.9-.5-2.2V356.7l1.2-6.5,8.2-29.4,1.3-2.2,21.8-24.7,1.6-1.4,27-2.6" fill="#9ab185"/>
    <path id="avoyelles" d="M381.6,387.3l15.4,2.1-.2,7.7,3.1,14.4.8,1,9.3.9,3.9-2.2-.6-1.5-2.3-2.9-1.8-4.7,1.5-3.5,2.3-2.2,3.5-.5,4,1.1,10.7,5.7,4.3,6.2,4.3,2.9,9.2,2.8,6.6,1.1,1-.3,3.5,2,2.2,2.7-6,26.5-1,3.3-1.6,3.4-5,6-12.3,39.4-78.3.8L344.4,473l12.6-6.3-3.8-32.1-.4-43.9,1.9-1.5,1.4-.6.8.3,12,6,12.7-7.5" fill="#9ab185"/>
    <path id="rapides" d="M257.4,346.5l2.5,14.6,2.3,11.9,1.3,1.1,5.9,2.2,5.3-.5,64.1-16.2,21-4.8,21.8,32.6L368.9,395l-12-6.1-.8-.2-1.4.5-1.8,1.5.3,43.9,3.8,32.2L344.4,473l-19.6-8.1-42.7,24.4L237.6,491l-.9-27.9-.7-55.4-9.8-14.9-3.3-1.7-16.7-5,51.2-39.5" fill="#9ab185"/>
    <path id="vernon" d="M156.4,382.1l49.8,4,16.7,5,3.3,1.7,9.9,14.9.6,55.4.9,27.8-30.5,2.9-30.6-.9-56.6-.2L92.8,496l1.4-72.8-.5-.4,1.4-12.6,2.4-7,28.6-21.1h30.3" fill="#9ab185"/>
    <path id="evangeline" d="M282.1,489.3l42.7-24.5,19.6,8.1,13.7,26.6,8.2,18.5v21.4l-8.9,24.5-8.5,6.9-30.2.3-6.6,1-2.2,2.3-6.6,10.2H276l.4-1.5,1.3-1.3,1.8-3,6.1-13.8-.4-1-2.5-2.5-.5-42V489.3" fill="#9ab185"/>
    <path id="allen" d="M237.6,490.9l44.5-1.6v30.3l.4,41.9,2.6,2.5.4,1-6.1,13.8-1.9,3-1.3,1.3H247.9l-16,7.8-31.6,3.9-23.1,3.3v-40l16.4-.2h13.5l.3-46.3-.4-18,30.5-2.8" fill="#9ab185"/>
    <path id="beauregard" d="M207.1,493.8l.5,18-.4,46.2H193.8l-16.5.3V603H126.8V583H106.8v20.2H56l.2-.2,7.7-6.2.9-2v-1.1l-2.4-14.4-5.3-6.9-.6-.6h0l2.5-8,29.7-52.2,4-15.3,27.1-3.2h56.6l30.6.9" fill="#9ab185"/>
    <path id="jefferson_Davis" data-name="jefferson Davis" d="M276,584.6l1.9,89.3-22.5,12.7H204.1V676.5l21.3-.6-3.3-10.3-4.7-6.1-20.3-23.9-19.9-27.4v-10l23.1-3.3L232,591l15.9-7.9h28.5l-.4,1.5" fill="#9ab185"/>
    <path id="calcasieu" d="M177.2,603v5.2l19.9,27.4,20.3,23.9,4.7,6.1,3.3,10.3-21.3.5v10.2H177.8v-3.4H59.9l-.3.3L61,639.1l-5-36.2h50.8V582.8h20.1l-.2,20.1h50.4" fill="#9ab185"/>
    <path id="cameron" d="M255.4,686.6l24.5-.3.7,78.6-.4,26.6-7.2-2-18.2-6.7-16.4-7.7-9-4.2-13.9-7-6.6-2.9h-.2l-22.8-8.1-17.8-4.8-10-1.6-8-.2-41.5,2L96,749.6l-19.4,2.3-9.7,1.3-11.6,2.4-.6.2-1.1.3-3.2,1-6.5,3.2-4.1,2.6-3.7,3-.3-51.3,23.8-31.2.3-.3,117.9.2v3.3h77.6" fill="#9ab185"/>
    <path id="acadia" d="M276,584.6h27.4l49.2-.4,13.7,9.8,7.3,26.6-.2,5-27.9,35L329.4,678l-4.2,2.7-3.9,1.7-3.5,1L280,674.6l-2.1-.7L276,584.7" fill="#9ab185"/>
    <path id="st_Landry" data-name="st Landry" d="M436.4,498.6l2.9,2.4,7.2,13.1,6.5,17.5.6,7.7-1.8,31.2-2.5,8.4L457,590l8.1,12.3-26.6.5-1.5-1.2-9.8-3.8-12,4.8-11.5,6.6-30.3,16.4.2-5.1L366.3,594l-13.7-9.8-49.1.4,6.5-10.2,2.2-2.3,6.6-1,30.2-.3,8.5-6.9,8.9-24.5v-8.9l-.2-12.5L358,499.5l78.4-.9" fill="#9ab185"/>
    <path id="pointe_Coupee" data-name="pointe Coupee" d="M448.7,459.3l18.1,5.2-.7,5.5.5,25.4.5,1.3,1.4,1.5,1.1.6L491,510.7l31.5,6.9,1.1.5,3.6,5.7,5.6,16.6L503,578.1l-42.7.7h-11l2.5-8.4,1.8-31.2-.6-7.7-6.5-17.5L439.3,501l-2.9-2.4,12.3-39.4" fill="#9ab185"/>
    <path id="west_Baton_Rouge" data-name="west Baton Rouge" d="M532.8,540.4l5.1,1.3,1.5.7,32.4,74.3-33.7.8-7.4-9.9-21.2-24.4-6.5-5.1,29.8-37.7" fill="#9ab185"/>
    <path id="lafayette" d="M373.4,625.6l30.3-16.4,8.4,67.6-2.7,9-20.3-8.9-12.5-9.2-16.3-5.9-14.8-1.1,27.9-35.1" fill="#9ab185"/>
    <path id="vermilion" d="M409.4,685.8l-.3,52.8-13,5.3-4.2,2.3-10,6.4-7.4,6.5-.9,4.5,3.5,8.3,4.2,8.9,3.7.7,19.1,1.2-8.5,7.2-1.1-.6-11.9-.4-10.4,1.3h-.1l-10.8,4.4-7.8,5.5-5.3,1.2h-1.7l-3.6.2H342l-50-8.1-11.5-1.9h-.3l.4-26.7-.7-78.6-24.5.4,22.5-12.8,2.1.7,37.8,8.9,3.5-1.1,3.9-1.7,4.2-2.8,16.1-17.3,14.8,1.2,16.3,5.9,12.5,9.2,20.3,8.9" fill="#9ab185"/>
    <path id="iberia" d="M404.1,782.6l15-5,4.7-.9,6.7,1.2,31,14.8.5.9-.4,1.5-11.5,15.2-2.4,1.4-7.8,2.2-3.4-1.1-38-19.6-2.9-3.4,8.5-7.2M528,678.2l29,7.1-6,12.6-43.1,4.3-30.4,3-16.8,23-32.5,29.1-19.1-18.7.3-52.8,2.7-8.9h8.7l28.1-8.7,3.8-2.2,2.7-.6h5.7l7,1.7,1.8.7,34.3,11,23.8-.6" fill="#9ab185"/>
    <path id="iberville" d="M503,578.1l6.5,5.2,21.2,24.3,7.4,9.9,33.7-.8,24-.2-15.5,59.8-23.3,9-29-7.1v-3l-2-5.3-19.8-30.4-3.4-1.6-3.7-.8-6.3.4-4.1-.4-2.5-1.3-2.5-2.2-6.7-12-1.1-3.2-.4-1.3.6-2.7-.2-12.1-.8-4.5-2.5-6.6-12.2-12.3,42.7-.7" fill="#9ab185"/>
    <path id="assumption" d="M608.6,674.8,625,711.3l-23.1,44.2-14.7,20.7-3.9-16.7.9-14.8v-8.6l-1.4-3-2.4-2.7-4.1-2.3h-2.1l-8.6-2-2.9-2.9-10.2-21-1.6-4.4,6-12.5,23.3-9,28.3-1.5" fill="#9ab185"/>
    <path id="st_Martin" data-name="st Martin" d="M449.3,578.9h11l12.2,12.3,2.6,6.6.7,4.5.2,12.1-.6,2.7.4,1.4,1.1,3.2,6.7,11.9,2.5,2.2,2.5,1.3,4.1.4,6.3-.4,3.7.8,3.4,1.6,19.8,30.4,2,5.3v3l-23.8.6-34.3-11-1.8-.7-7-1.7h-5.7l-2.7.6-3.8,2.2-28.1,8.7h-8.7l-8.4-67.7,11.5-6.6,12-4.8,9.8,3.8,1.5,1.2,26.6-.5L457,589.9l-7.7-11.1m58.6,123.3,43.1-4.3,1.6,4.3,10.2,21,2.9,2.9,8.7,2h2l4.1,2.3,2.4,2.7,1.4,3v8.7l-.9,14.7-23.2-11.3-32.5-16.2-19.7-29.8" fill="#9ab185"/>
    <path id="st_Mary" data-name="st Mary" d="M507.9,702.2l19.7,29.7,32.5,16.3,23.2,11.3,3.9,16.7L550,811.4h-4.4l-8.4-1.9-39.3-9.7-1.4-7.8-1-6.6-2.5-8.7-14-23.2-2.3-1.7-20.9-1.2-3,.3-24.6,6.4,32.5-29,16.8-23,30.4-3" fill="#9ab185"/>
    <path id="terrebonne" d="M601.9,755.5l35.4-14.8,1.4-.5,2.6.4L689.2,789l36.6,39.7,2.8,3.2,1.1,3.4.8,10.8-5.7,25-30.5-.9L677.4,888l2,12.7-40.9,7.9-88.7-44.8-4.9-4.1-6.6-7.3.4-1.7,11.1-5.7,13.7-7.4,2-2.1-.6-4.6-2.6-7-1.1-2.7-.8-.8L550,811.5l37.2-35.3,14.7-20.6" fill="#9ab185"/>
    <path id="lafourche" d="M693.9,712.5l10.6,7.4,16.8,18.9,9.9,13.6v1.4l1.8,2.5,2.4.7,22.2-.5h5.1l6.5,1.7,2.1,1.4.5,1.7,1.8,16.2v2.4l-1.3,4.2,15.4,24.1,11.9,5.7-.5,26-12.3,14.3,5.7,11.9-3.3,11-2.2,2-.6.6-13.1,10.3-.7.6-.6.3-9.2,5.5L739,903.6l-1.1-1.1v-.2l-.4-2.2,5-1.8,3.8-1.7,2.5-.5,2.2-.7,4.4-1.6,1.5-1,3.7-3.1-.2-4.3-8-17.1-3.2-4.7-6.1-8.7-3.5-2.7-6.9.8-4,5.1-4,13,5.8-25.1-.9-10.7-1.1-3.4-2.8-3.2L689.2,789l-47.9-48.5-2.6-.3-1.4.5-35.4,14.8L625,711.3l45.8,2.5,23.1-1.3" fill="#9ab185"/>
    <path id="st_James" data-name="st James" d="M672,650.2l-3.1,26.6-5.4,3.6,3.3,19.3,2.5,10.5,1.5,3.6L625,711.3l-16.4-36.5L672,650.2" fill="#9ab185"/>
    <path id="ascension" d="M621.3,610.5l35.1,34.7,4.2,3,1,.4.8-.4,11.1-10.6L672,650.2l-63.4,24.6-28.3,1.5,15.5-59.8,25.5-6" fill="#9ab185"/>
    <path id="east_Baton_Rouge" data-name="east Baton Rouge" d="M627.6,524.4l-11.7,16.4-13.4,15-.3,31.8,3.5,9.5,15.6,13.4-25.5,6-24,.2-32.4-74.2,6.2-11.5,2.1-1.5,79.9-5.1" fill="#9ab185"/>
    <path id="east_Feliciana" data-name="east Feliciana" d="M584.4,461.2l46.1-1.3-6.4,14.8,3.4,20,.6,12.9-.5,16.8-79.9,5.1-2.1,1.5-6.2,11.4-1.5-.7-.3-5.4.6-7.5,3.1-8.9,2.1-2.7,8.4-13.4,6.5-26.3,3.3-15.8,22.8-.5" fill="#9ab185"/>
    <path id="st_Helena" data-name="st Helena" d="M681.5,458.5l2.2,80.3-67.8,2,11.7-16.4.5-16.8-.6-12.9-3.4-20,6.4-14.8,51-1.4" fill="#9ab185"/>
    <path id="livingston" d="M615.9,540.8l67.8-2,1.1,37.4,4.5,12.2,14.8,21.8,6.5,7.1,2.3,2,2.4,1.2,3.7,1-13.5,4.2-4.5,2.2-1.3,1.1-3.2,6.5-2.6,3.8-2.7,2.7-2.5,1.4-2,.3-2.2-.5-11-5.7-11.1,10.6-.8.4-1-.3-4.2-3-35.1-34.8-15.6-13.3-3.5-9.5.3-31.8,13.4-15.1" fill="#9ab185"/>
    <path id="st_John_the_Baptist" data-name="st John the Baptist" d="M719,621.5l24.9,11.8L719,668.6l-16.8,12-8.6,3.3-2.2,3.3.2,4.3,2.3,21-23.1,1.3-1.5-3.6-2.5-10.5-3.3-19.3,5.4-3.6,4.6-39.3,11.1,5.7,2.1.4,2-.2,2.5-1.5,2.7-2.6,2.6-3.8,3.2-6.5,1.3-1.1,4.5-2.3,13.5-4.1" fill="#9ab185"/>
    <path id="st_Charles" data-name="st Charles" d="M693.9,712.5l-2.3-21-.2-4.3,2.2-3.3,8.6-3.3,16.8-12,24.9-35.3,1.1,51.5.3,7.9,1.7,11.5,1.1,3.8,5.9,9.6,11.9,7.6L762,744.1l-1.2,3.5-3.1,8.9-22.3.5-2.4-.7-1.8-2.6v-1.3l-9.9-13.6-16.8-18.9L694,712.5" fill="#9ab185"/>
    <path id="tangipahoa" d="M685.3,458.4l39.4-1.3.8,21.7,6,5.4,13.3,34.4v4.1l6.1,111.9-7-1.3L719,621.5l-3.6-1-2.5-1.2-2.3-2-6.5-7.1-14.8-21.8-4.5-12.2-1.1-37.5-2.2-80.3h3.8" fill="#9ab185"/>
    <path id="orleans" d="M778.3,641.1l21.8,9,19-10.6,4.6-1.6,38.6,4.1,11,4,1.2.8-8.8,9.9L838.6,673l-9.2,10.4-9.8,30.5-19.7-5.5-10.3-11.1-12.9-18.6,1.6-37.6" fill="#9ab185"/>
    <path id="st_Bernard" data-name="st Bernard" d="M829.4,683.4l1,5.1,1.8,5,1.2,2.2,2,1.4,27.8,15.2,6.3,1,4.5-.4,4.9-2,3-2.3,1.2-3.5,2.7-14.5V685L901,669l6.9-3.2,8.2,2.8,5.1,4.5-4.3,2.3-1.3,1.2-2,1.8v3.8l.3,2.9,11.3,13.1,2.2,1.7,9.4,5.2,2.2,1.3-14,21.8-8,11.2-11.6,4-8.8-3.7-20.8-1.4-3.4,1,1.1,4.9,2.3,2.7,8.6,5.3,4.4,1.6,3.8.8,4.1,1,9.4,9.6.5,1.4-.2.8-1.2-1.8-5.4-4.5-21.7-5.9L864.4,742l-2.9-3.2-29.3-8.7-2.1.7-1.3-.2-2.4-3-4.2-7.8-2.6-5.9,9.8-30.5" fill="#9ab185"/>
    <path id="plaquemines" d="M799.9,708.4l19.7,5.5,2.6,6,4.2,7.7,2.4,3.1,1.3.2,2.1-.7,29.3,8.7,2.9,3.2,13.7,13.1,21.7,5.9,5.4,4.6,1.2,1.8-3.5.2-7.4-3.5-16.6-3.3-3.6,1.5-6.5,5.2-1.8,5.5L864.5,792v1.1l1.5,1.7,5.7,4,36.7,20.7,5.9-.2,15.6-.2L971,832.2l10.3,13.6,5.2,7.6,7.9,4.9,7.6-3.2,1.4.7,1.4,1.4,3.3,7.1v.2l-.8,3.1v.2l-3.8,8.2-6.7,14-18.5,10.3L965.6,892H938l-21.5-26.3-.5-.6-2.7-2.7-.3-.3-2.1-1.6h0l-.9-.3-5.9-2.4-4.3-1.7-27.5-11-4.4-1.3-.8-.3-4.2-1-1.7-.4H860l-4.2-.5-5.9-.6-11-10.5,2.7-4.4.8-1.6v-2.1l-.2-1.3-4-15.5v-.7l-1.3-.6-1.8-1.1-2.6.5-2.6,1.1-5.2,3-3.2,3.7-2.6,3.5-4.6.4-1.9-1.4-2.6-2.8-1.9-34.5-.9-4.4-7.5-13.8-3.8-4.6-6.2-8.8-2-7.6,4.2-15.3,8.3-13.4" fill="#9ab185"/>
    <path id="west_Feliciana" data-name="west Feliciana" d="M471,463.3l90.6-1.7-3.3,15.9-6.5,26.3-8.3,13.4-2.2,2.6-3.1,9-.6,7.5.3,5.4-5.1-1.3-5.6-16.5-3.6-5.8-1.1-.5L491,510.7l-21.4-11.9-1.1-.6-1.4-1.4-.5-1.4-.5-25.4,4.9-6.7m-17.3-10,13.1,11.2-18.1-5.2,5-6" fill="#9ab185"/>
    <path id="jefferson" d="M743.9,633.3l6.9,1.3,27.5,6.5-1.6,37.6,12.9,18.6,10.3,11.1-8.3,13.5-4.2,15.3,2,7.5,6.2,8.8,3.8,4.6,7.5,13.8,1,4.4,1.9,34.5-10,3-12-5.7L772.5,784l1.3-4.3v-2.3l-1.9-16.2-.5-1.8-2-1.3-6.6-1.7h-5l3.1-8.8,1.2-3.5,3.9-19L754,717.5l-5.9-9.6-1.1-3.8-1.7-11.4-.3-8-1.1-51.4m48.7,232.6.2.2,4.7-2.5,5-3.8,11.1-9.2,2.7,1.5.3.7v.6l-1.1,1.7-11.5,10.4L791.3,875l-1.9,1.9h-.1l3.3-11" fill="#9ab185"/>
  </g>
</svg>
